<?xml version="1.0" standalone="no"?>
<!DOCTYPE svg PUBLIC "-//W3C//DTD SVG 20010904//EN"
 "http://www.w3.org/TR/2001/REC-SVG-20010904/DTD/svg10.dtd">
<svg version="1.0" xmlns="http://www.w3.org/2000/svg"
 width="584.000000pt" height="584.000000pt" viewBox="0 0 584.000000 584.000000"
 preserveAspectRatio="xMidYMid meet">
<metadata>
Created by potrace 1.14, written by Peter Selinger 2001-2017
</metadata>
<g transform="translate(0.000000,584.000000) scale(0.100000,-0.100000)"
fill="#000000" stroke="none">
<path d="M4391 5379 c-116 -29 -250 -87 -336 -145 -81 -53 -226 -188 -300
-277 -22 -27 -45 -54 -51 -60 -6 -7 -38 -50 -73 -97 -34 -47 -69 -93 -77 -103
-8 -9 -14 -20 -14 -23 0 -2 -5 -10 -10 -17 -10 -12 -42 -60 -92 -142 -14 -22
-25 -44 -26 -49 0 -5 -4 -12 -9 -15 -11 -8 -73 -110 -73 -121 0 -5 -6 -15 -12
-22 -7 -7 -23 -31 -34 -53 -12 -22 -42 -78 -67 -125 -99 -187 -125 -239 -119
-244 3 -3 0 -6 -6 -6 -7 0 -12 -5 -12 -11 0 -12 -319 -659 -330 -669 -3 -3
-15 -26 -28 -52 -13 -26 -27 -50 -33 -53 -5 -4 -9 -15 -9 -25 0 -10 -3 -20 -7
-22 -5 -1 -30 -40 -57 -85 -28 -46 -56 -83 -63 -83 -15 0 -37 50 -60 130 -36
130 -61 230 -57 230 2 0 -1 11 -6 24 -5 13 -12 43 -15 67 -4 24 -8 47 -11 50
-2 4 -6 24 -10 44 -3 21 -8 47 -11 59 -2 11 -6 30 -8 42 -1 11 -9 47 -16 80
-16 73 -14 63 -22 104 -26 128 -39 179 -93 350 -52 166 -171 438 -196 448 -4
2 -8 8 -8 14 0 34 -206 268 -236 268 -8 0 -14 4 -14 8 0 10 -56 38 -118 59
-131 44 -304 -7 -437 -129 -78 -72 -94 -88 -136 -144 -109 -141 -190 -341
-216 -532 -10 -74 -10 -410 0 -487 20 -149 25 -174 72 -385 1 -8 9 -35 16 -60
7 -25 13 -49 14 -55 9 -43 58 -198 75 -240 5 -11 14 -38 21 -60 18 -61 133
-354 190 -484 56 -127 277 -578 335 -681 19 -36 47 -87 62 -115 14 -27 34 -61
43 -75 9 -14 31 -52 48 -85 18 -33 43 -78 57 -100 13 -22 29 -49 34 -60 6 -11
14 -27 20 -35 5 -8 49 -80 96 -160 122 -203 208 -329 326 -481 55 -71 109
-130 150 -166 44 -39 52 -42 95 -39 73 5 142 40 267 138 91 72 326 302 436
428 41 47 79 90 85 95 5 6 26 30 45 55 19 24 42 52 50 61 22 23 73 86 122 149
23 30 45 57 48 60 5 4 88 114 272 361 16 23 159 226 188 269 97 143 130 192
130 196 0 3 5 10 10 17 9 11 73 108 107 163 7 10 43 68 80 129 37 60 73 118
78 127 6 10 34 59 64 110 30 51 70 125 90 163 20 39 38 72 41 75 12 11 200
402 200 415 0 1 7 19 15 39 8 20 15 38 15 41 0 3 6 18 14 34 16 29 84 247 92
291 3 14 9 39 14 55 5 17 11 47 15 69 3 21 7 41 9 45 3 4 7 27 10 51 3 25 8
56 11 70 14 71 20 163 20 330 -1 203 -5 243 -36 380 -6 25 -13 59 -16 75 -3
17 -9 35 -13 40 -4 6 -10 23 -14 39 -13 53 -105 237 -160 320 -107 161 -180
216 -294 220 -43 2 -97 -4 -141 -15z"/>
</g>
</svg>
