<?xml version="1.0" encoding="UTF-8" standalone="no"?>
<!DOCTYPE svg PUBLIC "-//W3C//DTD SVG 20010904//EN" "http://www.w3.org/TR/2001/REC-SVG-20010904/DTD/svg10.dtd">
<svg version="1.0" xmlns="http://www.w3.org/2000/svg" width="47.000000pt" height="55.000000pt"
     viewBox="0 0 47.000000 55.000000" preserveAspectRatio="xMidYMid meet">
  <g transform="translate(0.000000,55.000000) scale(0.100000,-0.100000)" fill="#550A2C" stroke="none">
    <path d="M354 500 c-32 -13 -70 -63 -111 -150 -21 -43 -40 -79 -43 -79 -3 -1 -11 29 -18 67 -20 106 -66 148 -111 103 -57 -57 -32 -175 75 -352 19 -32 41 -59 48 -62 36 -14 203 210 232 310 18 61 14 111 -11 149 -16 25 -27 28 -61 14z"/>
  </g>
</svg>
